<?xml version="1.0" encoding="UTF-8" standalone="no"?>
<!-- Created with Inkscape (http://www.inkscape.org/) -->

<svg
   xmlns:osb="http://www.openswatchbook.org/uri/2009/osb"
   xmlns:dc="http://purl.org/dc/elements/1.1/"
   xmlns:cc="http://creativecommons.org/ns#"
   xmlns:rdf="http://www.w3.org/1999/02/22-rdf-syntax-ns#"
   xmlns:svg="http://www.w3.org/2000/svg"
   xmlns="http://www.w3.org/2000/svg"
   xmlns:sodipodi="http://sodipodi.sourceforge.net/DTD/sodipodi-0.dtd"
   xmlns:inkscape="http://www.inkscape.org/namespaces/inkscape"
   width="744.09448819"
   height="1052.3622047"
   id="svg2"
   version="1.1"
   inkscape:version="0.48.1 r9760"
   sodipodi:docname="icon.svg">
  <defs
     id="defs4">
    <linearGradient
       id="linearGradient6903"
       osb:paint="solid">
      <stop
         style="stop-color:#000000;stop-opacity:1;"
         offset="0"
         id="stop6905" />
    </linearGradient>
    <linearGradient
       id="linearGradient6861"
       osb:paint="solid">
      <stop
         style="stop-color:#000000;stop-opacity:1;"
         offset="0"
         id="stop6863" />
    </linearGradient>
    <marker
       inkscape:stockid="DiamondS"
       orient="auto"
       refY="0.0"
       refX="0.0"
       id="DiamondS"
       style="overflow:visible">
      <path
         id="path3874"
         d="M 0,-7.0710768 L -7.0710894,0 L 0,7.0710589 L 7.0710462,0 L 0,-7.0710768 z "
         style="fill-rule:evenodd;stroke:#000000;stroke-width:1.0pt;marker-start:none"
         transform="scale(0.2)" />
    </marker>
    <marker
       inkscape:stockid="Arrow2Mstart"
       orient="auto"
       refY="0.0"
       refX="0.0"
       id="Arrow2Mstart"
       style="overflow:visible">
      <path
         id="path3812"
         style="font-size:12.0;fill-rule:evenodd;stroke-width:0.62500000;stroke-linejoin:round"
         d="M 8.7185878,4.0337352 L -2.2072895,0.016013256 L 8.7185884,-4.0017078 C 6.9730900,-1.6296469 6.9831476,1.6157441 8.7185878,4.0337352 z "
         transform="scale(0.6) translate(0,0)" />
    </marker>
    <marker
       inkscape:stockid="Tail"
       orient="auto"
       refY="0.0"
       refX="0.0"
       id="Tail"
       style="overflow:visible">
      <g
         id="g3824"
         transform="scale(-1.2)">
        <path
           id="path3826"
           d="M -3.8048674,-3.9585227 L 0.54352094,0"
           style="fill:none;fill-rule:evenodd;stroke:#000000;stroke-width:0.8;marker-start:none;marker-end:none;stroke-linecap:round" />
        <path
           id="path3828"
           d="M -1.2866832,-3.9585227 L 3.0617053,0"
           style="fill:none;fill-rule:evenodd;stroke:#000000;stroke-width:0.8;marker-start:none;marker-end:none;stroke-linecap:round" />
        <path
           id="path3830"
           d="M 1.3053582,-3.9585227 L 5.6537466,0"
           style="fill:none;fill-rule:evenodd;stroke:#000000;stroke-width:0.8;marker-start:none;marker-end:none;stroke-linecap:round" />
        <path
           id="path3832"
           d="M -3.8048674,4.1775838 L 0.54352094,0.21974226"
           style="fill:none;fill-rule:evenodd;stroke:#000000;stroke-width:0.8;marker-start:none;marker-end:none;stroke-linecap:round" />
        <path
           id="path3834"
           d="M -1.2866832,4.1775838 L 3.0617053,0.21974226"
           style="fill:none;fill-rule:evenodd;stroke:#000000;stroke-width:0.8;marker-start:none;marker-end:none;stroke-linecap:round" />
        <path
           id="path3836"
           d="M 1.3053582,4.1775838 L 5.6537466,0.21974226"
           style="fill:none;fill-rule:evenodd;stroke:#000000;stroke-width:0.8;marker-start:none;marker-end:none;stroke-linecap:round" />
      </g>
    </marker>
    <marker
       inkscape:stockid="Arrow1Mend"
       orient="auto"
       refY="0.0"
       refX="0.0"
       id="Arrow1Mend"
       style="overflow:visible;">
      <path
         id="path3797"
         d="M 0.0,0.0 L 5.0,-5.0 L -12.5,0.0 L 5.0,5.0 L 0.0,0.0 z "
         style="fill-rule:evenodd;stroke:#000000;stroke-width:1.0pt;marker-start:none;"
         transform="scale(0.4) rotate(180) translate(10,0)" />
    </marker>
    <marker
       inkscape:stockid="Arrow1Lstart"
       orient="auto"
       refY="0.0"
       refX="0.0"
       id="Arrow1Lstart"
       style="overflow:visible">
      <path
         id="path3788"
         d="M 0.0,0.0 L 5.0,-5.0 L -12.5,0.0 L 5.0,5.0 L 0.0,0.0 z "
         style="fill-rule:evenodd;stroke:#000000;stroke-width:1.0pt;marker-start:none"
         transform="scale(0.8) translate(12.5,0)" />
    </marker>
    <filter
       inkscape:collect="always"
       id="filter5399">
      <feGaussianBlur
         inkscape:collect="always"
         stdDeviation="13.765916"
         id="feGaussianBlur5401" />
    </filter>
  </defs>
  <sodipodi:namedview
     id="base"
     pagecolor="#ffffff"
     bordercolor="#666666"
     borderopacity="1.0"
     inkscape:pageopacity="0.0"
     inkscape:pageshadow="2"
     inkscape:zoom="0.98994949"
     inkscape:cx="247.80529"
     inkscape:cy="508.39459"
     inkscape:document-units="px"
     inkscape:current-layer="layer1"
     showgrid="false"
     inkscape:window-width="1920"
     inkscape:window-height="1147"
     inkscape:window-x="0"
     inkscape:window-y="31"
     inkscape:window-maximized="1" />
  <metadata
     id="metadata7">
    <rdf:RDF>
      <cc:Work
         rdf:about="">
        <dc:format>image/svg+xml</dc:format>
        <dc:type
           rdf:resource="http://purl.org/dc/dcmitype/StillImage" />
      </cc:Work>
    </rdf:RDF>
  </metadata>
  <g
     inkscape:label="Layer 1"
     inkscape:groupmode="layer"
     id="layer1">
    <g
       id="g2999"
       style="stroke:#000000;stroke-width:13.80000019;stroke-miterlimit:4;stroke-opacity:1;stroke-dasharray:none"
       transform="translate(-642.45702,-144.45181)">
      <path
         inkscape:connector-curvature="0"
         d="m 267.51465,278.29458 c 8.39196,9.38755 15.29582,19.99321 21.07333,31.16127 1.72525,3.33496 3.2901,6.75047 4.93515,10.12571 7.07159,15.38307 12.60855,31.46972 16.81693,47.86543 2.40597,9.37357 3.64085,16.18738 5.53719,25.65324 3.83352,20.60065 6.49086,41.36659 7.84409,62.27092 0.8095,14.8304 -1.16449,29.5529 -4.4468,43.97732 -1.6224,6.271 -4.40505,12.07703 -8.90607,16.79377 -2.75383,2.88582 -4.2931,3.84504 -7.49897,6.28039 -1.44134,0.92055 -2.85109,1.89255 -4.32403,2.76165 -7.14378,4.21516 -19.80851,12.65908 -29.33446,14.70669 -1.59826,0.34355 -3.23931,0.44361 -4.85896,0.66542 -11.91907,0.61241 -23.43586,-3.33428 -33.73878,-9.11913 -2.16319,-1.21458 -4.18239,-2.66947 -6.27358,-4.00421 -7.21474,-5.60454 -13.21409,-12.6534 -15.90505,-21.51395 -0.40346,-1.32848 -0.64035,-2.70194 -0.96052,-4.05292 -1.45626,-10.31394 1.08606,-16.91817 7.98333,-24.80848 1.94503,-2.22506 4.15763,-4.20124 6.23645,-6.30186 2.83511,-2.22309 5.54313,-4.61859 8.50533,-6.66928 3.52604,-2.44103 7.18798,-4.69185 10.93052,-6.78589 15.82046,-8.85193 23.84737,-13.53897 39.59054,-19.16614 14.10493,-5.04161 19.11064,-5.79955 33.74758,-9.27824 17.1118,-3.57819 34.4383,-6.19835 51.85393,-7.74767 14.24832,-1.26754 28.54408,-1.569 42.83604,-1.84158 12.92022,-0.0931 6.83435,-0.0818 18.25756,-0.0554 0,0 -11.42658,8.28005 -11.42658,8.28005 l 0,0 c -11.08711,-0.25576 -5.17054,-0.15601 -17.75023,-0.26754 -10.2991,0.0962 -16.00671,0.0555 -26.52114,0.57366 -22.67023,1.1173 -45.23696,4.02944 -67.42738,8.82727 -14.76859,3.60694 -19.56548,4.33209 -33.78507,9.55713 -5.1147,1.87941 -9.98801,4.37444 -15.09504,6.2746 -0.53625,0.19952 -1.20969,-0.28538 -1.71639,-0.0196 -8.92115,4.67923 -11.42788,7.08438 -19.06624,12.96158 -6.17461,6.10647 -12.80811,12.15227 -14.40462,21.14704 -0.58604,3.30171 -0.1922,5.1158 0.119,8.39486 0.28746,1.30257 0.49853,2.62439 0.86239,3.90772 2.4409,8.6091 8.08761,15.48206 15.06241,20.91381 2.04368,1.30197 4.0124,2.72985 6.13104,3.9059 10.26242,5.69665 21.7505,9.2563 33.5556,8.17574 1.5895,-0.29047 3.20251,-0.47321 4.7685,-0.8714 2.62308,-0.667 5.81535,-2.02155 8.25654,-3.17057 1.39334,-0.65582 5.40525,-2.93704 4.1233,-2.08375 -2.58743,1.72222 -5.3355,3.1921 -8.05354,4.69977 -1.48662,0.82461 2.90511,-1.76647 4.35766,-2.6497 1.35122,-0.97654 2.746,-1.89548 4.05366,-2.92962 6.50081,-5.14108 10.5966,-11.26672 12.85537,-19.26472 3.57624,-14.31495 5.66767,-28.98067 4.98153,-43.77646 -1.18825,-20.92022 -3.54542,-41.73207 -7.26961,-62.36315 -1.84454,-9.36078 -3.07808,-16.314 -5.45609,-25.57495 -4.18611,-16.3024 -9.78439,-32.27901 -16.92981,-47.51999 -1.66754,-3.3347 -3.24764,-6.71458 -5.00261,-10.0041 -5.86535,-10.99398 -12.88424,-21.50646 -21.79267,-30.27687 0,0 12.66927,-7.76374 12.66927,-7.76374 z"
         id="path2995"
         style="fill:#000000;fill-opacity:1;fill-rule:nonzero;stroke:#000000;stroke-width:13.80000019;stroke-miterlimit:4;stroke-opacity:1;stroke-dasharray:none" />
      <path
         inkscape:connector-curvature="0"
         d="m 229.24406,363.52485 c 21.52488,-2.26343 43.14098,-3.50073 64.74056,-4.80016 33.42715,-2.14404 66.84537,-4.47728 100.16217,-7.96192 19.28121,-2.18404 38.46932,-5.25562 57.47098,-9.19001 0.53132,0.0713 5.52265,-2.06712 5.22387,0.44847 -0.15423,1.29848 -3.42642,3.03575 -3.80809,3.31486 -1.33077,0.97316 -2.61352,2.01032 -3.92028,3.01548 -16.25794,14.4115 -31.12617,30.33849 -45.61106,46.50632 -16.05632,19.0182 -30.98252,39.19134 -43.05565,61.00673 -2.12605,3.84163 -4.01486,7.80986 -6.02229,11.71479 -5.5025,13.02271 -13.8404,29.53467 -9.8736,44.15204 0.66274,2.44215 1.96799,4.66265 2.95198,6.99398 1.71461,2.23186 3.20133,4.65896 5.14384,6.69557 9.5305,9.99221 25.61854,17.88049 38.40308,22.59461 4.00182,1.47561 8.12312,2.60439 12.18468,3.90659 20.66863,5.75669 42.08415,8.65962 63.49762,9.65662 3.66215,0.1705 7.33042,0.16292 10.99563,0.24438 13.13476,-0.0687 26.57791,-1.12177 39.11418,-5.36856 1.68686,-0.57144 3.2999,-1.34121 4.94985,-2.01182 11.20697,-6.04224 -3.20626,1.98837 -4.90069,2.8097 -0.99676,0.48316 1.82863,-1.25198 2.7131,-1.91883 1.73799,-1.31035 3.21204,-2.77289 4.67846,-4.36588 0.37477,-0.45519 1.13104,-1.22327 1.27867,-1.88272 0.23217,-1.03712 -1.95809,-6.33945 -2.26238,-7.22859 -5.40095,-16.20632 -6.98088,-33.33647 -8.76649,-50.22888 -0.34682,-4.11682 -0.69363,-8.23364 -1.04045,-12.35046 0,0 11.99221,-6.24009 11.99221,-6.24009 l 0,0 c 0.35756,4.09878 0.71512,8.19755 1.07268,12.29633 1.91617,16.64614 3.67406,33.58895 9.6377,49.37519 0.60561,1.56816 2.8657,6.32029 2.92629,7.96579 0.0485,1.31601 -0.35271,1.51882 -1.0739,2.51744 -0.39784,0.44049 -2.38287,2.64722 -2.66937,2.92124 -1.19088,1.13899 -3.54121,3.0272 -4.86575,3.83676 -14.41526,8.81071 -11.06779,7.04869 -20.08797,11.41283 -1.65655,0.61159 -3.28319,1.31125 -4.96965,1.83477 -12.52437,3.88788 -25.80518,4.80024 -38.8357,4.64968 -3.64217,-0.12317 -7.28802,-0.16443 -10.92649,-0.36951 -21.44541,-1.20876 -42.88049,-4.18842 -63.58363,-9.99017 -4.09481,-1.32609 -8.248,-2.48389 -12.28444,-3.97827 -13.03705,-4.82662 -29.43259,-12.79479 -39.21662,-22.91848 -2.04192,-2.11281 -3.6139,-4.63394 -5.42085,-6.95091 -1.05086,-2.44039 -2.43744,-4.7622 -3.15259,-7.32118 -4.21096,-15.06779 4.40533,-31.84892 10.17411,-45.23092 2.04697,-3.9502 3.98173,-7.9606 6.1409,-11.8506 12.11211,-21.82134 26.94354,-42.07317 42.8939,-61.21814 14.1749,-15.9982 28.7569,-31.6889 44.40028,-46.2701 0.0343,-0.0279 5.39442,-4.47652 6.17518,-4.86324 0.72095,-0.3571 2.56071,0.0839 2.26554,0.83237 -0.4999,1.26757 -4.73929,-2.3646 -4.04239,0.60731 -18.73375,3.33264 -37.54192,6.3191 -56.47316,8.2889 -33.26006,3.30392 -66.61017,5.50007 -99.95558,7.74741 -17.15161,1.14792 -16.43666,1.02297 -33.07398,2.42626 -9.9763,0.84146 -20.01912,1.6569 -29.9132,3.25797 -1.0854,0.17564 -2.15149,0.45479 -3.22724,0.68218 0,0 11.84603,-9.20313 11.84603,-9.20313 z"
         id="path2997"
         style="fill:#000000;fill-opacity:1;fill-rule:nonzero;stroke:#000000;stroke-width:13.80000019;stroke-miterlimit:4;stroke-opacity:1;stroke-dasharray:none" />
    </g>
    <path
       sodipodi:type="arc"
       style="fill:#0094ff;fill-opacity:1;stroke:#000000;stroke-width:30.88601875;stroke-linecap:butt;stroke-miterlimit:4;stroke-opacity:1;stroke-dasharray:none;stroke-dashoffset:0;marker-start:none;marker-mid:none;filter:url(#filter5399)"
       id="path3783"
       sodipodi:cx="146.47212"
       sodipodi:cy="226.0574"
       sodipodi:rx="246.72757"
       sodipodi:ry="246.72757"
       d="m 393.19969,226.0574 a 246.72757,246.72757 0 1 1 -493.45514,0 246.72757,246.72757 0 1 1 493.45514,0 z"
       transform="matrix(0.93126278,0,0,0.93126278,220.68488,229.18582)" />
    <g
       id="g3775"
       style="stroke:#000000;stroke-width:23.9;stroke-miterlimit:4;stroke-opacity:1;stroke-dasharray:none"
       transform="translate(104.04571,-381.83766)">
      <path
         inkscape:connector-curvature="0"
         d="m 213.91317,656.22325 c 0.18614,0.98355 0.33419,1.97508 0.55843,2.95066 1.58346,6.88896 3.82743,13.62848 5.74166,20.42585 3.07505,10.9194 3.50658,12.94291 6.43037,24.43223 5.33636,22.99065 9.32272,46.30218 11.97668,69.75475 1.93754,17.1217 2.20043,23.38893 3.42872,40.65445 1.28124,24.28276 2.54246,48.67163 1.32831,72.98955 -0.55461,11.10813 -1.00435,13.02443 -2.38434,23.44717 -1.24035,6.01378 -2.47474,17.09515 -7.23409,21.77847 -1.00293,0.9869 -2.22644,1.75077 -3.48136,2.38719 -5.79195,2.93735 -11.74639,5.54267 -17.61958,8.314 -2.27368,0.13959 -4.54331,0.4511 -6.82104,0.41876 -10.56273,-0.14993 -20.97109,-2.86056 -30.99632,-5.94673 -11.74999,-3.61713 -16.72707,-5.77837 -28.36752,-10.26573 -13.44103,-5.46855 -26.49666,-11.98958 -38.2781,-20.52273 -4.80504,-3.48024 -10.422178,-8.24281 -14.321972,-12.87078 -1.436458,-1.70467 -2.533821,-3.66839 -3.800732,-5.50258 -0.515315,-1.74507 -1.375972,-3.42359 -1.545946,-5.2352 -0.501444,-5.34444 3.190427,-10.5087 7.532892,-13.20935 16.457508,-10.23523 13.424258,-8.68707 26.598808,-12.59292 3.53258,-0.64038 7.04831,-1.38189 10.59773,-1.92112 10.2423,-1.55603 17.81458,-2.1738 28.28741,-2.98181 19.88295,-1.53402 39.76996,-2.30274 59.69653,-2.99212 43.2541,-1.42254 86.50929,-2.64683 129.7397,-4.69363 15.71989,-0.79992 8.40826,-0.35487 21.93827,-1.27863 0,0 -11.01151,8.08784 -11.01151,8.08784 l 0,0 c -12.96235,0.44965 -5.94354,0.2359 -21.0574,0.60909 -42.97044,1.16379 -85.94521,2.30252 -128.89511,4.07831 -20.21839,0.89939 -40.39529,1.87149 -60.55503,3.70593 -10.35585,0.94234 -18.66248,1.75839 -28.81094,3.53475 -3.61687,0.63308 -7.18821,1.50326 -10.78231,2.25488 -2.79702,0.9356 -5.69394,4.00018 -8.39106,2.80678 -2.14199,-0.94777 3.57399,-3.26096 5.81349,-3.94728 1.80764,-0.55397 -3.13286,2.16283 -4.44192,3.52695 -2.02306,2.10814 -3.74365,5.15223 -3.69445,8.19663 0.0273,1.68886 0.75729,3.29218 1.13594,4.93827 1.13589,1.81774 2.09263,3.76055 3.40767,5.45321 3.63657,4.68082 8.94752,9.4683 13.57518,12.98543 11.47054,8.71789 24.34827,15.25128 37.70517,20.54578 13.50668,5.01334 26.94137,10.03174 41.10038,12.9382 6.32676,1.29871 12.6371,2.13902 19.10215,1.95357 2.30275,-0.0661 4.57951,-0.50608 6.86927,-0.75912 -2.40581,1.8585 -5.11644,3.37827 -7.21743,5.57548 -0.94397,0.9872 2.58437,-1.0037 3.65585,-1.85078 5.20099,-4.11175 7.13171,-15.7976 8.52838,-21.60864 1.73681,-10.39757 2.31906,-12.57515 3.15359,-23.66991 1.83317,-24.37131 0.7928,-48.88471 -0.52715,-73.2473 -1.26558,-17.10805 -1.54814,-23.54699 -3.56397,-40.50421 -2.76885,-23.29165 -6.96139,-46.42951 -12.74114,-69.16387 -2.87668,-10.29496 -3.85848,-14.20394 -7.0029,-24.05407 -2.44454,-7.6577 -5.37065,-15.16361 -7.53973,-22.90849 0,0 13.18047,-7.01718 13.18047,-7.01718 z"
         id="path3771"
         style="stroke:#000000;stroke-width:23.9;stroke-miterlimit:4;stroke-opacity:1;stroke-dasharray:none" />
      <path
         inkscape:connector-curvature="0"
         d="m 126.11844,750.58306 c 15.45351,-4.60337 31.36108,-7.1545 47.2714,-9.55393 32.86598,-4.10149 66.01013,-5.23217 99.08531,-6.29678 16.58697,-0.22907 33.15633,-1.01305 49.72626,-1.73644 4.79048,-0.20914 14.55956,-0.89287 19.83769,-0.17422 1.87365,0.25511 3.6315,1.05585 5.44725,1.58378 0.85205,1.39677 2.27005,2.57938 2.55615,4.19032 0.86409,4.86534 -2.247,12.39881 -3.79528,16.3296 -1.50422,3.81893 -3.23383,7.54566 -4.91717,11.28909 -4.00361,8.90325 -8.1861,17.72498 -12.27252,26.59053 -11.2677,25.05725 -23.09115,49.91048 -33.20522,75.46951 -1.68982,4.2703 -3.23331,8.59707 -4.84996,12.89561 -3.02577,8.76266 -6.12643,17.55031 -8.08075,26.63218 -0.61266,2.84708 -1.21538,6.52711 -1.23832,9.51713 -0.008,1.09248 0.16935,2.17845 0.25402,3.26767 0.27617,0.96667 0.42807,1.97785 0.82852,2.9 2.39,5.50358 8.4588,7.86204 13.5951,9.92067 12.37274,4.48687 25.35436,6.63145 38.37119,8.16377 8.21327,0.70272 16.48532,1.46369 24.74114,1.1048 3.42429,-0.14885 4.94674,-0.47253 8.26876,-0.98576 7.0866,-1.53776 13.81239,-4.33475 20.32457,-7.46898 0.70617,-0.41337 2.83271,-1.63942 2.1185,-1.24011 -20.98355,11.73191 -11.41264,8.05476 -8.74424,3.68594 0.65254,-1.06837 0.79666,-1.68496 1.1947,-2.84391 1.12767,-3.67648 -0.33598,-7.12407 -1.67162,-10.519 -0.48455,-1.08441 -0.93798,-2.18325 -1.45363,-3.25322 -2.14744,-4.45595 -4.41397,-8.81465 -6.32423,-13.38743 -1.21737,-2.91414 -2.8014,-7.19808 -3.92536,-10.18404 -0.51148,-1.47413 -1.02296,-2.94825 -1.53444,-4.42238 0,0 12.60492,-6.94437 12.60492,-6.94437 l 0,0 c 0.47665,1.47657 0.9533,2.95314 1.42994,4.42971 1.23232,3.39893 2.41182,6.79293 3.83257,10.12114 1.94062,4.54603 4.30254,8.83761 6.59056,13.20724 0.56034,1.07013 1.08013,2.16102 1.62019,3.24153 1.56544,3.59124 3.25097,7.34934 2.30039,11.34464 -0.46234,1.69445 -0.95226,3.38317 -1.95297,4.85929 -3.94096,5.81325 -11.58889,7.6559 -17.56766,11.04099 -6.57076,2.98628 -13.3196,5.7432 -20.45824,7.02097 -10.9131,1.35846 -21.88506,0.35983 -32.78845,-0.73408 -13.20096,-1.60708 -26.35481,-3.82829 -38.95964,-8.2088 -5.64987,-2.25591 -11.84991,-4.94773 -14.45933,-10.93875 -0.44275,-1.01651 -0.626,-2.1273 -0.93899,-3.19095 -0.0771,-1.17906 -0.26152,-2.35601 -0.23118,-3.5372 0.0802,-3.12248 0.8413,-7.00113 1.56921,-9.9496 2.2929,-9.28771 5.72497,-18.25302 8.9958,-27.22247 1.69771,-4.3498 3.33412,-8.72402 5.09313,-13.04939 10.35004,-25.45059 22.02337,-50.3494 33.12083,-75.47532 0.73116,-1.62469 10.84986,-24.0865 11.83208,-26.35378 1.58196,-3.65167 3.1879,-7.29676 4.59082,-11.02088 1.14589,-3.04179 4.09199,-10.7981 3.59003,-14.87772 -0.15637,-1.27082 -1.22893,-2.24667 -1.84339,-3.37001 -1.62613,-0.52011 -3.19295,-1.28808 -4.87839,-1.56033 -5.17817,-0.83643 -14.20961,-0.42611 -18.96961,-0.31319 -16.3727,0.3884 -32.73949,1.02782 -49.11562,1.28308 -33.34985,1.11626 -66.7609,2.58261 -99.85766,7.06037 -16.42349,2.6453 -32.8322,5.51895 -48.66473,10.7687 0,0 11.90757,-9.10522 11.90757,-9.10522 z"
         id="path3773"
         style="stroke:#000000;stroke-width:23.9;stroke-miterlimit:4;stroke-opacity:1;stroke-dasharray:none" />
    </g>
    <path
       transform="matrix(0.93126278,0,0,0.93126278,220.68488,229.18582)"
       d="m 393.19969,226.0574 a 246.72757,246.72757 0 1 1 -493.45514,0 246.72757,246.72757 0 1 1 493.45514,0 z"
       sodipodi:ry="246.72757"
       sodipodi:rx="246.72757"
       sodipodi:cy="226.0574"
       sodipodi:cx="146.47212"
       id="path5415"
       style="fill:#0094ff;fill-opacity:0;stroke:#000000;stroke-width:9.51718521;stroke-linecap:butt;stroke-linejoin:miter;stroke-miterlimit:4;stroke-opacity:1;stroke-dasharray:none;stroke-dashoffset:0;marker-start:none;marker-mid:none"
       sodipodi:type="arc" />
    <g
       id="g6899"
       style="fill:#000000;fill-opacity:0;stroke:#000000;stroke-opacity:1;stroke-width:20.3;stroke-miterlimit:4;stroke-dasharray:none;stroke-linecap:butt">
      <path
         inkscape:connector-curvature="0"
         d="m -227.3649,646.57289 c 2.58244,5.62023 5.0184,11.30306 7.47163,16.98078 3.98523,9.40384 7.81864,18.85979 10.91468,28.59649 4.19865,14.38421 6.13013,29.28195 7.96814,44.11228 2.00585,17.14455 2.77051,34.40279 2.85563,51.65451 -0.0532,16.77673 -2.3465,33.36638 -5.04215,49.88334 -2.40103,13.45021 -6.43444,26.79867 -13.01662,38.8371 -1.17082,2.14138 -2.54904,4.16266 -3.82356,6.24399 -4.84579,6.98739 -11.02578,12.70424 -18.53698,16.7086 -18.48144,9.85279 -11.99338,7.55431 -24.55124,11.08948 -12.99997,2.91079 -26.70459,5.31421 -40.06846,5.32732 -2.39229,0.002 -4.77976,-0.21471 -7.16963,-0.32207 -7.42193,-1.14488 -14.96648,-2.89108 -21.67733,-6.39594 -3.0156,-1.57496 -3.76034,-2.32917 -6.35618,-4.34746 -4.02051,-3.71539 -5.99961,-7.76021 -5.0158,-13.31044 0.20488,-1.15584 0.60375,-2.26876 0.90562,-3.40314 0.62468,-1.33496 1.10307,-2.74873 1.87405,-4.00489 3.91034,-6.37119 10.01103,-11.36509 16.37757,-15.12095 20.52241,-12.10694 16.27755,-9.84908 33.51969,-16.3901 38.24479,-11.42367 78.43668,-12.15873 118.01662,-13.06315 38.95266,-0.57446 77.917187,0.13598 116.844169,-1.63608 0,0 -10.697384,7.8224 -10.697384,7.8224 l 0,0 c -38.392595,0.58736 -76.788875,-0.34182 -115.180765,0.4126 -40.03915,1.13204 -80.71146,2.31167 -119.22632,14.50449 -4.08449,1.6322 -8.06092,3.5663 -12.25346,4.8966 -0.73108,0.23198 2.35707,-1.94746 1.70194,-1.54858 -7.30937,4.45045 -14.31878,9.81053 -17.7907,17.86461 -2.12045,6.92788 -2.0576,9.9173 3.25995,15.20855 0.90028,0.70661 1.75782,1.47135 2.70083,2.11984 7.15796,4.92243 15.90215,6.95657 24.35575,8.21428 2.33491,0.0973 4.66782,0.30044 7.00474,0.29195 13.481,-0.049 26.94136,-2.50548 39.98697,-5.68956 2.19554,-0.67449 6.3942,-4.31219 6.58662,-2.02346 0.21914,2.6066 -4.9177,2.40631 -6.37162,4.58083 -1.11917,1.67386 3.58685,-1.8457 5.27582,-2.94193 3.37112,-2.18804 6.6913,-5.05011 9.41406,-7.99546 1.52975,-1.65482 2.86569,-3.4788 4.29853,-5.2182 1.32083,-2.05163 2.75366,-4.03533 3.96247,-6.15489 6.76212,-11.85684 10.7875,-25.1499 13.2656,-38.49881 2.7422,-16.4475 4.99199,-32.97168 5.15619,-49.68201 -0.059,-17.20658 -0.72518,-34.4283 -2.73515,-51.52876 -1.89176,-14.69029 -3.96449,-29.42737 -8.34387,-43.62295 -3.05297,-9.69098 -6.90201,-19.08501 -10.97532,-28.38934 -2.48643,-5.62336 -5.04165,-11.20497 -7.89906,-16.65171 0,0 13.01433,-7.41016 13.01433,-7.41016 z"
         id="path6895"
         style="fill:#000000;fill-opacity:0;stroke:#000000;stroke-width:20.3;stroke-linecap:butt;stroke-linejoin:miter;stroke-miterlimit:4;stroke-opacity:1;stroke-dasharray:none;stroke-dashoffset:0" />
      <path
         inkscape:connector-curvature="0"
         d="m -290.78165,723.52735 c 9.42643,-1.1786 18.89532,-1.91481 28.35831,-2.75013 19.8852,-1.48562 39.73652,-3.26557 59.53187,-5.67252 22.71525,-2.80941 45.35158,-6.19209 67.98457,-9.58977 11.79024,-2.06624 23.62729,-3.84357 35.426255,-5.85294 6.828909,-1.29445 13.658872,-2.59601 20.529224,-3.66188 2.102596,-0.2083 4.172426,-0.64657 6.265726,-0.9186 0.04589,-0.006 2.222973,-0.39109 2.64447,0.0343 0.998966,1.00812 0.492285,1.64446 0.189832,2.77285 -3.954425,5.22431 -8.025267,10.37388 -12.091462,15.51685 -9.221238,10.92198 -18.949595,21.40126 -28.019435,32.4552 -2.73172,3.32931 -5.38912,6.71892 -8.08369,10.07838 -13.69019,17.93623 -27.83453,35.97813 -37.41164,56.56465 -1.81298,3.89711 -3.26049,7.95403 -4.89073,11.93104 -4.86398,14.26011 -8.46959,29.28421 -6.52417,44.44732 1.04685,8.15938 2.39015,10.62148 5.12693,18.24699 1.40866,2.67253 2.64311,5.44439 4.22597,8.01758 5.84425,9.50073 14.1769,17.72453 23.27228,24.11199 2.18926,1.53746 4.52178,2.86007 6.78267,4.29011 6.63531,3.74596 13.57983,6.98422 20.73897,9.60224 6.44373,2.3564 13.124885,4.09486 19.717547,5.97189 11.193242,2.89286 22.722632,4.21654 34.215652,5.24684 6.781974,0.90091 13.377422,-0.31013 19.789643,-2.44641 2.21766,-0.8786 4.396423,-1.8713 6.501379,-2.99519 0.625002,-0.3337 2.463547,-1.40096 1.848758,-1.04879 -11.791959,6.75474 -14.583584,8.48083 -9.536812,5.39598 1.848921,-1.17131 3.674069,-2.52162 4.631426,-4.53291 0.665835,-2.78474 -0.579596,-5.53583 -1.692381,-8.03235 -1.445695,-2.88105 -3.031926,-5.69536 -4.373877,-8.62726 -0.846535,-2.14583 -2.49573,-3.74898 -4.086014,-5.3555 0,0 12.750304,-7.80504 12.750304,-7.80504 l 0,0 c 1.721346,1.73676 3.45249,3.50235 4.348489,5.82999 1.273266,2.96347 2.852276,5.78366 4.312739,8.65622 1.285702,2.85782 2.543957,5.79506 2.324336,9.0054 -0.189392,0.67224 -0.369354,1.47542 -0.72685,2.08939 -0.818148,1.40508 -2.423576,2.39252 -3.619326,3.41495 -7.863112,4.71882 -15.614202,9.91129 -24.304813,13.00258 -6.501066,1.92172 -13.136323,2.81356 -19.908232,1.80481 -11.452751,-1.22733 -22.934459,-2.70863 -34.089988,-5.65198 -13.97302,-4.08171 -27.95402,-8.38954 -40.47729,-16.0421 -2.27969,-1.47033 -4.6326,-2.83291 -6.83907,-4.41099 -9.19552,-6.57667 -17.55106,-14.99645 -23.43639,-24.69273 -1.6006,-2.63702 -2.85164,-5.47096 -4.27746,-8.20644 -2.78612,-7.8142 -4.14189,-10.29637 -5.19339,-18.65823 -1.93798,-15.41138 1.78071,-30.65426 6.65934,-45.1616 1.6258,-4.01914 3.06449,-8.11913 4.8774,-12.05741 9.50755,-20.65377 23.69081,-38.70831 37.2585,-56.77129 11.26027,-14.28976 22.98221,-28.17618 34.828696,-41.98056 3.92103,-5.00935 7.650315,-10.17094 11.743314,-15.03901 0.223475,-0.21637 0.367909,-0.57671 0.670424,-0.64913 0.197686,-0.0473 0.527697,0.17505 0.482295,0.37318 -0.04212,0.18381 -0.37735,-0.0199 -0.565633,-0.009 -2.570866,0.14231 -5.106509,0.63695 -7.659051,0.94024 -6.895174,1.09852 -13.719475,2.56251 -20.603725,3.72484 -11.52723,1.74924 -23.08715,3.27904 -34.58913,5.19811 -22.60888,3.18282 -45.19281,6.54222 -67.8404,9.44352 -19.96354,2.44734 -39.98691,4.24556 -60.02263,5.99031 -9.74702,0.97378 -19.49357,1.91869 -29.1838,3.3726 0,0 12.01007,-8.91006 12.01007,-8.91006 z"
         id="path6897"
         style="fill:#000000;fill-opacity:0;stroke:#000000;stroke-width:20.3;stroke-linecap:butt;stroke-linejoin:miter;stroke-miterlimit:4;stroke-opacity:1;stroke-dasharray:none;stroke-dashoffset:0" />
    </g>
    <flowRoot
       xml:space="preserve"
       id="flowRoot6921"
       style="fill:black;stroke:none;stroke-opacity:1;stroke-width:1px;stroke-linejoin:miter;stroke-linecap:butt;fill-opacity:1;font-family:Sans;font-style:normal;font-weight:normal;font-size:40px;line-height:125%;letter-spacing:0px;word-spacing:0px"><flowRegion
         id="flowRegion6923"><rect
           id="rect6925"
           width="116.16754"
           height="252.53813"
           x="223.24371"
           y="800.83423" /></flowRegion><flowPara
         id="flowPara6927"></flowPara></flowRoot>  </g>
</svg>
