/* XPM */
static char *term_icon_xpm[] = {
"46 46 224 2",
"  	c None",
"BA	c #000003",
"CA	c #000303",
"DA	c #000306",
"EA	c #000305",
"FA	c #000406",
"GA	c #000509",
"HA	c #00070B",
"IA	c #00080E",
"JA	c #00080F",
"KA	c #00080D",
"LA	c #00070C",
"MA	c #00060A",
"NA	c #000A11",
"OA	c #000E18",
"PA	c #00060B",
"QA	c #001A2C",
"RA	c #002F51",
"SA	c #003B65",
"TA	c #004170",
"UA	c #00477A",
"VA	c #004A80",
"WA	c #000004",
"XA	c #000205",
"YA	c #000407",
"ZA	c #001626",
"aA	c #00345A",
"bA	c #004577",
"cA	c #005490",
"dA	c #005FA5",
"eA	c #0068B4",
"fA	c #006EBD",
"gA	c #0072C4",
"hA	c #0074C8",
"iA	c #003459",
"jA	c #000408",
"kA	c #00121E",
"lA	c #00355B",
"mA	c #004C84",
"nA	c #0060A6",
"oA	c #006FBF",
"pA	c #007BD3",
"qA	c #0082E1",
"rA	c #0087E9",
"sA	c #008AED",
"tA	c #008BF0",
"uA	c #008CF1",
"vA	c #000609",
"wA	c #00070D",
"xA	c #002847",
"yA	c #00477C",
"zA	c #005FA6",
"0A	c #0073C7",
"1A	c #0081DF",
"2A	c #0089EC",
"3A	c #008EF4",
"4A	c #0090F9",
"5A	c #007FDB",
"6A	c #0089EB",
"7A	c #0093FD",
"8A	c #0093FC",
"9A	c #0092FB",
"+A	c #0081DE",
"/A	c #000910",
"AB	c #00548F",
"BB	c #006DBD",
"CB	c #0080DC",
"DB	c #008AEE",
"EB	c #0090F8",
"FB	c #0092FC",
"GB	c #0085E6",
"HB	c #003E6B",
"IB	c #0069B5",
"JB	c #0094FF",
"KB	c #0094FE",
"LB	c #0093FE",
"MB	c #0090F7",
"NB	c #00355A",
"OB	c #003C66",
"PB	c #005B9C",
"QB	c #0075C9",
"RB	c #0086E7",
"SB	c #008FF6",
"TB	c #002744",
"UB	c #000000",
"VB	c #004678",
"WB	c #003C67",
"XB	c #005DA1",
"YB	c #0079D0",
"ZB	c #005491",
"aB	c #001C30",
"bB	c #005B9D",
"cB	c #0091FA",
"dB	c #0083E2",
"eB	c #000101",
"fB	c #0088EA",
"gB	c #002947",
"hB	c #0075CA",
"iB	c #0089ED",
"jB	c #001D32",
"kB	c #0062A8",
"lB	c #00121F",
"mB	c #00487C",
"nB	c #004A7F",
"oB	c #0070C1",
"pB	c #0091F9",
"qB	c #0076CC",
"rB	c #0068B3",
"sB	c #005FA3",
"tB	c #00508A",
"uB	c #003053",
"vB	c #002743",
"wB	c #001E33",
"xB	c #001829",
"yB	c #001320",
"zB	c #000D17",
"0B	c #000102",
"1B	c #000D16",
"2B	c #00070A",
"3B	c #003C68",
"4B	c #008DF3",
"5B	c #00192B",
"6B	c #002A48",
"7B	c #003154",
"8B	c #003962",
"9B	c #003D69",
"+B	c #00406E",
"/B	c #00233D",
"AC	c #004679",
"BC	c #000206",
"CC	c #001A2D",
"DC	c #007AD3",
"EC	c #001B2E",
"FC	c #001524",
"GC	c #00355C",
"HC	c #005694",
"IC	c #006BB8",
"JC	c #00497D",
"KC	c #0072C5",
"LC	c #0083E1",
"MC	c #0088EB",
"NC	c #0064AC",
"OC	c #003B66",
"PC	c #0063AA",
"QC	c #004171",
"RC	c #00243E",
"SC	c #008EF5",
"TC	c #001423",
"UC	c #000203",
"VC	c #001728",
"WC	c #005796",
"XC	c #000F18",
"YC	c #000A12",
"ZC	c #008CF2",
"aC	c #001422",
"bC	c #004271",
"cC	c #0080DD",
"dC	c #0079D1",
"eC	c #0073C6",
"fC	c #006CBA",
"gC	c #0065AE",
"hC	c #000F19",
"iC	c #004476",
"jC	c #00101C",
"kC	c #002845",
"lC	c #00223B",
"mC	c #00111D",
"nC	c #00101B",
"oC	c #006EBE",
"pC	c #002C4C",
"qC	c #004D84",
"rC	c #000B13",
"sC	c #001321",
"tC	c #002946",
"uC	c #004D85",
"vC	c #00599A",
"wC	c #0076CB",
"xC	c #0071C3",
"yC	c #005897",
"zC	c #007DD7",
"0C	c #002D4E",
"1C	c #00528E",
"2C	c #00365E",
"3C	c #003E6A",
"4C	c #000204",
"5C	c #001F36",
"6C	c #002038",
"7C	c #00090F",
"8C	c #00518C",
"9C	c #00223A",
"+C	c #007DD8",
"/C	c #006DBB",
"AD	c #00375E",
"BD	c #006FC0",
"CD	c #002642",
"DD	c #002A49",
"ED	c #0078CE",
"FD	c #002C4B",
"GD	c #00538F",
"HD	c #0060A5",
"ID	c #000E19",
"JD	c #008FF5",
"KD	c #006DBC",
"LD	c #003B67",
"MD	c #0076CA",
"ND	c #0091FB",
"OD	c #005999",
"PD	c #00375F",
"QD	c #000C14",
"RD	c #005C9E",
"SD	c #00365C",
"TD	c #008BEF",
"UD	c #0092FA",
"VD	c #005695",
"WD	c #00406F",
"XD	c #003A64",
"YD	c #0067B1",
"ZD	c #000A10",
"aD	c #005EA3",
"bD	c #007AD2",
"cD	c #00050B",
"dD	c #00365B",
"eD	c #006DBE",
"fD	c #002948",
"                                      BACADAEAEADACABA                                      ",
"                              BAEAFAGAHAIAJAKAKAJAIAHAGAFAEABA                              ",
"                          CAFALAKAMAFAFAMANAOAOANAMAFAFAMAKALAFACA                          ",
"                      CAFALAPAFANAQARASATAUAVAVAUATASARAQANAFAPALAFACA                      ",
"                  WAXALALAYAZAaAbAcAdAeAfAgAhAhAgAfAeAdAcAbAiAZAYALALAXAWA                  ",
"                BAjALADAkAlAmAnAoApAqArAsAtAuAuAtAsArAqApAoAnAmAlAkADALAjABA                ",
"              CAvAwAGAxAyAzA0A1A2A3A4A5A6A7A7A7A7A8A9A4A3A2A+A0AzAyAxAGAwAvACA              ",
"            CAGAMA/AaAABBBCBDBEBFBGBHBEAIBJBJBJBJBJBJBKBLBFBMBDBCBBBABNB/AMAGACA            ",
"          BAvAvAOAOBPBQBRBSBFBLBJBTBUBUBVBJBJBJBJBJBJBJBJBJBLBFBSBRBQBPBWBOAvAvABA          ",
"          jAwA/AWBXBYB2A4A7AJBJBJBZBUBUBaBJBJBJBJBJBJBJBJBJBJBJB7A4A2AYBXBWB/AwAjA          ",
"        XALAGANBbBYBDBcBLBJBJBJBJBdBeBUBeBfBJBJBJBJBJBJBJBJBJBJBJBLBcBDBYBPBNBGALAXA        ",
"      CALADAgBcAhBiBcBKBJBJBJBJBJBJBjBUBUBkBJBJBJBJBJBJBJBJBJBJBJBJBKBcB2AQBcAgBDALACA      ",
"      FAHAlBmBBBRB4ALBJBJBJBJBJBJBJBnBUBUBTAJBJBJBJBJBJBJBJBJBJBJBJBJBLB4ARBBBmBkAHAFA      ",
"    CAwAYAlAzACBSB7AJBJBJBJBJBJBJBJBoBUBUBTBJBJBJBJBJBJBJBJBJBJBJBJBJBJB7ASBCBzAlAYAwACA    ",
"    FAPAZAmA0ADBFBJBJBJBJBJBpBqBrBsBtBUBUBGAuBvBwBxByBzBIAYA0B1BeAJBJBJBJBFBDB0AmAZAPAFA    ",
"  BA2BFAiAnA+AMBLBJB3APB3BwBDAUBUBUBUBUBUBUBUBUBUBUBUBUBUBUBUBUBgBJBJBJBJBLBMB+AnAiAFA2BBA  ",
"  EAKANAbAoAiBFBJB4B5BUBUBUBUBUBUBUBUBeBUBUBxB6B7BlA8B9B+B/BUBUBACJBJBJBJBJBFBiBoAbANAKAEA  ",
"  BCMACCcADC3ALBJBJBECUBFCGCHCIChBCBDBJCUBUBHCJBJBJBJBJBJBiAUBUBKCJBJBJBJBJBLB3ADCcACCMABC  ",
"  GAFAvAdAqA4AJBJBJBLCMCJBJBJBJBJBJBJBNCUBUBHBJBJBJBJBJBGBEAUBwBJBJBJBJBJBJBJB4AqAdAvAFAGA  ",
"CAHAYAOCeArA9AJBJBJBJBJBJBJBJBJBJBJBJBDCUBUB7BJBJBJBJBJBUAUBUBPCJBJBJBJBJBJBJB9ArAeAOCYAHACA",
"CAIAMAQCfAsA7AJBJBJBJBJBJBJBJBJBJBJBJBfBUBUBRCJBJBJBJBSCNAUBTC7AJBJBJBJBJBJBJB7AsAfAQCMAIACA",
"DAJANAUAgAtA7AJBJBJBJBJBJBJBJBJBJBJBJB7AUCUBVCJBJBJBJBWCUBUBcAJBJBJBJBJBJBJBJB7AtAgAUANAJADA",
"EAwAXCVAhAuA7AJBJBJBJBJBJBJBJBJBJBJBJBJBzBUBYCJBJBJBLBZAUBKAZCJBJBJBJBJBJBJBJB7AuAhAVAXCwAEA",
"EAwAXCVAhAuA7AJBJBJBJBJBJBJBJBJBJBJBJBJBaCUBPAJBJBJBrBUBUBbCJBJBJBJBJB7AuAJBJB7AuAhAVAXCwAEA",
"DAJANAUAgAtA7AJBJBJBJBJBJBLB2AcCdCeCfCgChCUBEAtBVAiCjCUBeBkCkClCCCmCKAnCoCJBJB7AtAgAUANAJADA",
"CAIAMAQCfAsA7AJBJBSCcAkCaCYAUBUBUBUBUBUBUBUBUBUBUBUBUBUBUBUBUBUBUBUBpCMCJBJBJB7AsAfAQCMAIACA",
"CAHAYAOCeArA9A7AqCrCUBUBUBUBUBUBUBUBUBUBUBUBUBUCPAYAUBUBsCwBlCTBpCcALBJBJBJBJB9ArAeAOCYAHACA",
"  GAFAvAdAqA4APBUBUB1BtCSAuCvCPCfCwC5ArAZAUBUB7ADBEAUBwBJBJBJBJBJBJBxCGBJBJBJB4AqAdAvAFAGA  ",
"  BCMACCcADC3AZAUBUBuCJBJBJBJBJBJBJBJBJBQAUBUBpBcAUBUByCJBJBJBJBzC0CUB1CJBJBLB3ADCcACCMABC  ",
"  EAKANAbAoAiB2CUBUBUB3C2AJBJBJBJBJBJBJBxBUB4CLB5CUB0BrAJBJBJBJBJCUBUBaBJBJBFBiBoAbANAKAEA  ",
"  BA2BFAiAnA+ARB6CUBUBUB7C8CpBJBJBJBJBJBPAUBmCLCUBUB9CJBJBJBJBJB+CUBUBUB/CLBMB+AnAiAFA2BBA  ",
"    FAPAZAmA0ADBZCADeBUBUBUBjCTABDFBJB5AUBUBCDbBUBUBSAJBJBJBJBJBJBTBUBUBDDFBDB0AmAZAPAFA    ",
"    CAwAYAlAzACBSB7AEDtCUBUBUBUBUBrCFDlCUBUBtCUAUBUBeBuBGDgASCJBJBHDUBUBIDJDCBzAlAYAwACA    ",
"      FAHAlBmBoCRBpBLBJBKDRAEAUBUBUBUBUBUBKARBYB/AUBUBUBUBUBUBMArCeBUBUBLDRBBBmBkAHAFA      ",
"      CALADAgBZBMDiBNDKBJBJBsAODPDQAUCLAiCRBJBJBLCDDYAUBUBUBUBUBUBUBQDRD2AQBABxADALACA      ",
"        XALAGASDRDdCTDUDLBJBJBJBJBJBFBJBJBJBJBJBJBJBcBwCVDWD9BXDOCYDSCDBYBPBNBGALAXA        ",
"          jAwAZD9BaDbDsApB7AJBJBJBJBJBJBJBJBJBJBJBJBJBJBJBJBJBJB7ApB2AdCXBOB/AwAjA          ",
"          CAvAMAID9BRDhBRBSBFBLBJBJBJBJBJBJBJBJBJBJBJBJBJBJBLBFBSBRBhBbBWBOAvAvABA          ",
"            CAcDMAZDdDZBeDCBDBEBFBLBKBJBJBJBJBJBJBJBJBKBLBFBMBDBCBBBcAlAZDMAGACA            ",
"              CAvAwAGAfDmBzA0A1A2A3A4A9A8A7A7A7A7A8A9A4A3A2A+A0AzAmBgBGAwAvACA              ",
"                CAjALADAlBlAmAnAoApAqArAsAtAuAuAtAsArAqApAoAnAmAlAlBDALAjABA                ",
"                  WAXALALAYAZAaAbAcAdAeAfAgAhAhAgAfAeAdAcAbAiAZAYALALAXAWA                  ",
"                      CAFALAPAFANAQARASATAUAVAVAUATASARAQANAFAPALAFACA                      ",
"                          CAFALAKAMAFAFAMANAOAOANAMAFAFAMAKALAFACA                          ",
"                              BAEAFAGAHAIAJAKAKAJAIAHAGAFAEABA                              ",
"                                      BACADAEAEADACABA                                      "
};
